<?xml version="1.0" standalone="no"?>
<!DOCTYPE svg PUBLIC "-//W3C//DTD SVG 20010904//EN"
 "http://www.w3.org/TR/2001/REC-SVG-20010904/DTD/svg10.dtd">
<svg version="1.0" xmlns="http://www.w3.org/2000/svg"
 width="1022.000000pt" height="1280.000000pt" viewBox="0 0 1022.000000 1280.000000"
 preserveAspectRatio="xMidYMid meet">
<metadata>
Created by potrace 1.15, written by Peter Selinger 2001-2017
</metadata>
<g transform="translate(0.000000,1280.000000) scale(0.100000,-0.100000)"
fill="#000000" stroke="none">
<path d="M7255 12785 c-299 -30 -609 -106 -847 -209 -88 -38 -294 -432 -424
-808 -30 -90 -53 -145 -49 -123 14 89 108 454 155 597 27 84 48 154 46 155 -8
8 -283 -140 -386 -208 -193 -126 -413 -326 -445 -404 -20 -47 -63 -250 -75
-355 -6 -52 -14 -211 -17 -354 -3 -142 -10 -252 -14 -244 -14 25 -48 173 -63
273 -12 82 -35 356 -36 440 -1 28 -51 -91 -99 -234 -77 -230 -131 -494 -166
-806 -9 -82 -18 -151 -19 -153 -2 -1 -11 19 -21 45 -54 146 -184 337 -295 433
-70 60 -207 147 -216 137 -3 -3 11 -55 30 -117 19 -61 46 -166 60 -233 28
-139 59 -347 53 -353 -2 -2 -23 49 -47 114 -97 264 -198 470 -298 610 -40 56
-54 68 -136 109 -269 135 -526 209 -764 220 l-123 6 82 -79 c91 -89 173 -187
241 -289 60 -91 172 -294 166 -301 -3 -3 -30 28 -59 68 -159 215 -357 425
-513 542 -100 75 -154 88 -356 89 -160 1 -276 -16 -447 -64 -106 -30 -311
-102 -399 -140 l-49 -21 80 -29 c266 -99 514 -253 711 -444 l79 -76 -65 36
c-36 20 -150 79 -255 130 -279 137 -476 199 -680 212 l-100 6 -113 -69 c-286
-173 -520 -382 -670 -597 -42 -61 -43 -62 -20 -69 13 -3 50 -7 83 -7 111 -2
387 -49 425 -72 9 -6 -6 -7 -41 -3 -126 14 -407 -28 -612 -90 l-82 -25 -95
-143 c-217 -326 -340 -642 -365 -935 l-8 -83 30 0 c60 0 284 32 423 60 125 26
348 84 355 92 1 2 30 57 63 124 104 203 264 463 410 664 72 99 82 107 43 37
-139 -253 -229 -447 -295 -636 -25 -72 -32 -102 -24 -108 22 -13 224 -16 292
-4 36 6 95 20 130 31 65 20 65 20 151 136 192 255 453 543 757 835 109 105
198 189 198 185 0 -3 -40 -58 -90 -121 -270 -349 -500 -707 -636 -990 l-53
-110 27 -23 c78 -64 274 -141 405 -157 31 -4 57 -10 57 -12 0 -3 -17 -26 -38
-52 -44 -53 -123 -163 -120 -166 2 -1 57 6 123 16 174 26 717 68 704 55 -3 -3
-70 -14 -149 -26 -291 -42 -533 -104 -752 -192 l-128 -51 -70 -117 c-180 -302
-309 -653 -376 -1025 l-7 -39 79 65 c213 177 428 301 668 385 124 43 116 31
-62 -92 -251 -173 -455 -355 -589 -525 -57 -72 -60 -80 -66 -145 -16 -167 24
-519 84 -750 31 -121 108 -349 144 -429 l23 -50 18 45 c82 202 187 371 300
480 81 79 83 78 24 -10 -100 -148 -199 -395 -240 -597 -28 -140 -27 -165 10
-268 143 -398 358 -703 614 -870 84 -55 160 -94 183 -95 18 0 159 219 213 332
88 185 112 363 70 515 -59 215 -179 453 -408 813 -57 90 -111 176 -120 190
l-15 25 20 -20 c11 -11 161 -190 333 -397 l312 -377 32 24 c71 54 143 171 165
270 10 43 8 72 -14 200 -59 352 -188 764 -425 1365 -12 30 -17 51 -11 45 11
-11 127 -245 421 -848 184 -377 206 -417 224 -411 106 31 218 112 317 230 82
97 179 239 179 261 0 36 -138 498 -245 818 -89 268 -223 642 -300 840 -15 38
2 10 87 -140 322 -569 648 -1161 648 -1178 0 -6 11 -35 24 -63 29 -62 92 -118
160 -141 74 -25 218 -23 319 5 76 22 196 76 249 113 l26 19 6 -47 c3 -27 7
-70 8 -97 2 -47 2 -48 -36 -61 -44 -15 -65 -40 -66 -76 0 -35 22 -98 53 -146
30 -48 57 -161 64 -274 l6 -86 -38 -6 c-51 -8 -85 -42 -85 -82 0 -18 20 -72
45 -122 46 -91 75 -194 75 -269 0 -39 -2 -43 -39 -58 -22 -8 -55 -29 -75 -47
-30 -26 -36 -37 -36 -73 0 -25 10 -60 25 -88 13 -25 34 -79 45 -120 19 -71 54
-268 48 -273 -2 -1 -22 -12 -45 -24 -91 -46 -103 -91 -52 -187 44 -84 66 -151
89 -278 33 -179 32 -166 8 -166 -43 0 -100 -25 -125 -54 -43 -52 -27 -127 62
-288 31 -55 62 -197 71 -324 l7 -91 -48 -12 c-54 -13 -100 -54 -111 -97 -12
-46 12 -132 65 -239 48 -96 74 -192 96 -347 l6 -47 -60 -31 c-164 -82 -197
-172 -122 -328 22 -44 51 -116 64 -159 27 -85 77 -299 77 -329 0 -12 -25 -37
-64 -67 -49 -36 -71 -60 -92 -102 -39 -80 -31 -149 30 -270 25 -49 54 -125 65
-168 l19 -78 -59 56 c-33 32 -62 56 -63 54 -2 -2 4 -47 15 -99 10 -52 21 -138
24 -190 l6 -95 -22 30 c-40 52 -90 95 -140 121 -27 13 -49 22 -49 19 0 -3 9
-23 20 -45 23 -46 73 -215 68 -230 -2 -6 -25 18 -51 54 -64 88 -152 175 -223
223 -64 44 -137 83 -154 83 -5 0 7 -35 29 -77 46 -92 92 -231 121 -360 30
-140 31 -137 -42 -98 -76 40 -181 71 -268 80 -75 7 -75 8 40 -67 47 -31 117
-85 157 -120 68 -60 193 -192 193 -204 0 -3 -30 -2 -67 1 -88 9 -182 -8 -260
-46 -65 -31 -173 -122 -161 -134 4 -4 41 -2 83 4 79 12 339 13 389 2 l30 -6
-30 -13 c-52 -24 -226 -124 -222 -128 2 -2 60 22 129 52 301 135 638 213 786
184 146 -29 280 -86 488 -210 77 -46 150 -90 163 -98 12 -8 22 -12 22 -9 0 5
-233 172 -305 218 -22 15 -60 36 -85 49 l-44 22 23 19 c27 22 119 26 186 8 22
-6 77 -14 122 -18 97 -9 135 -33 189 -117 l35 -54 37 23 c130 82 366 139 727
176 l170 17 -141 7 c-78 4 -171 4 -208 0 -36 -3 -66 -2 -66 2 0 28 213 192
345 266 60 34 60 34 30 40 -16 4 -62 7 -101 8 -124 2 -245 -48 -341 -142 l-43
-41 0 46 c0 134 50 383 101 497 10 24 18 46 16 48 -3 2 -28 -18 -57 -44 -65
-58 -138 -167 -171 -254 -23 -61 -24 -63 -30 -34 -11 48 -10 141 2 216 6 39 9
73 6 75 -2 3 -28 -11 -57 -31 -28 -19 -54 -35 -57 -35 -8 0 8 195 27 326 12
89 23 130 39 152 38 54 81 158 88 209 13 117 -57 215 -205 286 l-84 40 7 71
c13 142 34 242 69 316 52 115 68 170 70 237 1 48 -4 68 -20 90 -31 41 -80 71
-130 79 -24 3 -44 9 -44 13 0 3 7 49 15 101 21 128 58 267 95 350 35 80 37
118 10 176 -22 45 -93 100 -166 129 -46 18 -46 5 -13 192 20 121 56 244 89
308 51 100 -6 196 -150 251 -25 9 -48 22 -52 28 -11 16 -10 118 2 216 7 61 20
107 46 162 71 154 44 222 -99 253 l-29 6 7 67 c13 123 35 206 80 296 57 112
60 161 14 200 -17 14 -48 29 -70 32 -21 4 -39 12 -39 18 0 6 7 50 15 97 16 90
37 158 75 245 23 51 23 52 4 90 -17 34 -69 72 -132 95 -9 4 8 152 26 222 7 28
9 27 61 -58 63 -104 167 -217 236 -256 27 -16 55 -29 62 -29 6 0 177 242 379
537 375 549 440 643 450 643 3 0 -3 -15 -14 -32 -153 -251 -434 -789 -530
-1018 -80 -189 -162 -433 -162 -479 1 -96 47 -216 114 -296 l34 -40 34 31 c18
17 110 100 203 184 94 85 252 230 352 322 100 93 184 168 188 168 3 0 -59 -75
-138 -167 -79 -93 -181 -215 -227 -273 -180 -227 -338 -499 -366 -629 -39
-184 -1 -384 123 -643 64 -135 49 -129 188 -73 161 66 298 161 437 302 146
148 253 294 372 510 l56 101 0 127 c0 229 -47 457 -135 657 l-45 103 39 -45
c93 -106 181 -293 231 -492 l27 -109 40 68 c200 338 332 686 387 1023 23 141
22 159 -7 216 -62 121 -176 276 -327 445 -36 40 -56 69 -45 65 58 -23 128 -45
179 -57 54 -12 62 -18 178 -137 l120 -125 -7 115 -7 116 30 7 c36 8 37 12 52
225 21 306 7 634 -46 1062 -8 70 -14 138 -12 150 3 23 109 -343 167 -577 66
-267 130 -630 147 -833 l7 -82 97 -93 c53 -50 122 -107 153 -125 70 -42 170
-83 179 -74 12 12 56 250 72 392 9 74 19 214 23 310 8 196 14 188 33 -40 13
-160 15 -627 2 -758 l-8 -82 136 -133 c74 -74 173 -165 220 -204 91 -76 278
-213 289 -213 12 0 109 210 136 294 32 100 61 242 74 368 12 108 13 401 3 519
-7 72 -9 78 -57 134 -111 130 -326 301 -496 395 -46 25 -63 38 -44 34 82 -18
254 -82 374 -140 74 -35 136 -64 139 -64 9 0 -8 170 -29 277 -33 171 -100 359
-198 558 -123 248 -117 240 -214 285 -225 105 -509 164 -837 176 -80 3 -170 8
-200 11 l-55 6 50 13 c262 70 611 81 911 29 48 -9 89 -13 92 -11 6 6 -145 190
-238 291 -222 239 -431 389 -642 461 -63 21 -75 22 -165 13 -191 -20 -472 -93
-693 -181 -160 -64 -176 -69 -155 -52 40 32 208 126 300 169 121 56 277 110
396 136 52 11 95 22 97 24 9 8 -247 124 -338 153 -138 45 -205 60 -369 86
l-146 23 54 27 c44 23 51 30 40 40 -8 7 -120 98 -249 201 -372 299 -900 733
-900 740 0 3 42 -21 93 -52 355 -215 855 -490 1214 -665 l241 -118 51 19 c81
33 231 111 296 154 114 78 236 214 222 250 -3 8 -220 170 -484 362 -746 544
-755 552 -432 358 495 -298 821 -461 1143 -572 108 -37 117 -39 183 -31 110
14 208 58 286 130 8 7 -159 211 -510 622 -79 92 -143 170 -143 174 0 3 50 -40
111 -97 353 -328 566 -492 788 -604 213 -107 470 -83 804 72 53 26 97 50 97
54 0 29 -60 190 -101 269 -127 247 -340 455 -676 658 l-138 84 -160 -6 c-249
-8 -437 -47 -633 -129 -45 -19 -82 -34 -82 -32 0 1 24 21 54 44 120 90 270
155 465 203 69 16 128 32 129 33 8 7 -260 160 -383 220 -207 100 -412 170
-623 214 -191 40 -206 39 -298 -7 -187 -94 -380 -243 -631 -486 -84 -82 -153
-145 -153 -142 0 15 105 191 159 266 113 159 283 337 431 452 l35 28 -115 -1
c-63 -1 -174 -7 -245 -14z m-1574 -2509 c144 -101 350 -235 463 -300 l38 -23
-67 -47 -67 -47 -51 45 c-120 105 -500 486 -485 486 3 0 79 -51 169 -114z
m-2392 -348 c-70 -98 -186 -326 -230 -455 l-31 -91 -91 -4 c-51 -2 -93 -4 -94
-3 -5 3 168 268 222 341 56 75 262 294 277 294 4 0 -20 -37 -53 -82z m3450
-62 c-2 -2 -57 -42 -122 -90 -64 -47 -149 -111 -188 -142 -39 -31 -72 -54 -74
-52 -1 1 43 57 99 123 l103 120 79 22 c76 21 112 27 103 19z m-1011 -9469 c3
-14 -6 -17 -52 -17 -66 0 -73 13 -13 27 51 13 61 11 65 -10z"/>
</g>
</svg>
