<svg id="visual" viewBox="0 0 900 600" width="900" height="600" xmlns="http://www.w3.org/2000/svg" xmlns:xlink="http://www.w3.org/1999/xlink" version="1.1"><rect x="0" y="0" width="900" height="600" fill="#002233"></rect><path d="M0 531L15 530.3C30 529.7 60 528.3 90 510.2C120 492 150 457 180 453.7C210 450.3 240 478.7 270 482.2C300 485.7 330 464.3 360 467.3C390 470.3 420 497.7 450 502C480 506.3 510 487.7 540 488C570 488.3 600 507.7 630 519.2C660 530.7 690 534.3 720 526.3C750 518.3 780 498.7 810 489.5C840 480.3 870 481.7 885 482.3L900 483L900 601L885 601C870 601 840 601 810 601C780 601 750 601 720 601C690 601 660 601 630 601C600 601 570 601 540 601C510 601 480 601 450 601C420 601 390 601 360 601C330 601 300 601 270 601C240 601 210 601 180 601C150 601 120 601 90 601C60 601 30 601 15 601L0 601Z" fill="#0066FF" stroke-linecap="round" stroke-linejoin="miter"></path></svg>